<svg xmlns="http://www.w3.org/2000/svg" xmlns:xlink="http://www.w3.org/1999/xlink" viewBox="0 0 500 500"><defs><style>.cls-1,.cls-7{fill:#f0ae76;}.cls-2{fill:url(#linear-gradient);}.cls-3{fill:#efdeb3;}.cls-4,.cls-9{fill:#d35359;}.cls-5{fill:#6c284e;}.cls-6{fill:#331337;}.cls-7{font-size:41.21px;font-family:FuturaPT-Medium, Futura PT;font-weight:500;}.cls-8{letter-spacing:-0.03em;}.cls-9{font-size:26.41px;font-family:FuturaPT-Light, Futura PT;font-weight:300;}.cls-10{letter-spacing:-0.06em;}</style><linearGradient id="linear-gradient" x1="250" y1="299.59" x2="250" y2="-160.18" gradientUnits="userSpaceOnUse"><stop offset="0" stop-color="#f0ae76"/><stop offset="1" stop-color="#dc886d"/></linearGradient></defs><g id="BACKGROUND"><g id="sky"><rect class="cls-1" width="500" height="500"/><rect class="cls-2" width="500" height="500"/></g><path id="front_clouds" class="cls-3" d="M1481.9,185.38a14.57,14.57,0,0,0,.21,2.4c-.52.18-1,.37-1.55.57-4.29-5.18-13.23-5.32-20.37-.18a19.09,19.09,0,0,0-7.3,9.91h-.83a4,4,0,0,0-5.93-3.48,5.47,5.47,0,0,0-4.8-2.83,5.62,5.62,0,0,0-1.54.22,9.11,9.11,0,0,0-8.55-6,9.23,9.23,0,0,0-1.4.11A16.25,16.25,0,0,0,1398,184a10.67,10.67,0,0,0-4-.8,10.79,10.79,0,0,0-10.65,9.16,4.62,4.62,0,0,0-3.17,5.79c-8.35.29-14.5,1.27-14.5,2.44,0,1.39,8.76,2.52,19.56,2.52,1,0,2,0,3,0a10.69,10.69,0,0,0,10.2.78,5.88,5.88,0,0,0,10.43-.26,16.22,16.22,0,0,0,5,.77,15.88,15.88,0,0,0,3.4-.36,5.87,5.87,0,0,0,9.6-1,9.11,9.11,0,0,0,10.27-.82c1,.16,2.24.3,3.56.43a5.44,5.44,0,0,0,.58.05c3.12.27,6.89.43,10.94.43h.33a10,10,0,0,0,4.47,7.5,43.31,43.31,0,0,0-4,18.32c0,.31,0,.61,0,.92-.41,0-.83-.06-1.25-.06a14,14,0,0,0-14,12.86,44.79,44.79,0,0,0-4.68-.79,14.46,14.46,0,0,0-28.54,3.34,14.62,14.62,0,0,0,.34,3.12,43.93,43.93,0,0,0-10.65,9.51,19.59,19.59,0,0,0-21,4.41,24.78,24.78,0,0,0-22.71-4.31,35.89,35.89,0,0,0-1.3-4.62,13,13,0,1,0-14.17-18.17,36.49,36.49,0,0,0-56.47,26.08,36,36,0,0,0-3.76-.2,36.5,36.5,0,0,0-33.92,23,55.09,55.09,0,0,0-42.1,3.54,24.89,24.89,0,0,0-46.1.74,41.43,41.43,0,0,0-10.37-8.68,24.87,24.87,0,0,0-31.71-33.35c-.18-.23-.36-.47-.55-.69a13,13,0,0,0-13.69-21.81,18.28,18.28,0,0,0-34.88,2.32,52.05,52.05,0,0,0-5.91,1,17.77,17.77,0,0,0-17.69-16.27c-.54,0-1.07,0-1.59.08,0-.39,0-.78,0-1.17a55.09,55.09,0,0,0-37-52,19,19,0,0,0,.26-3,18.3,18.3,0,0,0-9.76-16.18,18.3,18.3,0,0,0-9.76,16.18,19,19,0,0,0,.26,3,55.09,55.09,0,0,0-37,52c0,.39,0,.78,0,1.17-.52-.05-1.05-.08-1.58-.08a17.77,17.77,0,0,0-17.7,16.27,52.05,52.05,0,0,0-5.91-1A18.28,18.28,0,0,0,883,223.8a13,13,0,0,0-13.68,21.81c-.19.22-.38.46-.56.69a24.88,24.88,0,0,0-31.71,33.35,41.43,41.43,0,0,0-10.37,8.68,24.88,24.88,0,0,0-46.09-.74,55.11,55.11,0,0,0-42.11-3.54,36.5,36.5,0,0,0-33.92-23,36,36,0,0,0-3.76.2,36.49,36.49,0,0,0-56.47-26.08,13,13,0,1,0-14.17,18.17,35.89,35.89,0,0,0-1.3,4.62,24.78,24.78,0,0,0-22.71,4.31,19.59,19.59,0,0,0-21-4.41,43.93,43.93,0,0,0-10.65-9.51,14.62,14.62,0,0,0,.34-3.12,14.46,14.46,0,0,0-28.54-3.34,44.79,44.79,0,0,0-4.68.79,14,14,0,0,0-14-12.86c-.42,0-.84,0-1.25.06,0-.31,0-.61,0-.92a43.31,43.31,0,0,0-4-18.32,10,10,0,0,0,2.61-2.49c4.11-5.71,1.45-14.64-5.93-20-7.15-5.14-16.09-5-20.38.18-.51-.2-1-.39-1.55-.57a14.37,14.37,0,0,0-7-14.91v-.14l-.12.07-.38-.22V173a14.45,14.45,0,0,0-7,14.9c-.52.18-1,.38-1.54.58-4.29-5.18-13.23-5.33-20.38-.18a19.09,19.09,0,0,0-7.3,9.91h-.82a4,4,0,0,0-5.94-3.47,5.47,5.47,0,0,0-4.79-2.84,5.28,5.28,0,0,0-1.55.23,9,9,0,0,0-9.94-5.86,16.25,16.25,0,0,0-31.85-2.13,10.9,10.9,0,0,0-4.05-.79,10.79,10.79,0,0,0-10.66,9.15,4.63,4.63,0,0,0-3.16,5.8c-8.35.29-14.51,1.27-14.51,2.44,0,1.39,8.76,2.52,19.56,2.52,1,0,2,0,2.95,0a10.71,10.71,0,0,0,5.82,1.71,10.84,10.84,0,0,0,4.38-.93,5.88,5.88,0,0,0,10.43-.26,16.29,16.29,0,0,0,5,.77,16.62,16.62,0,0,0,3.4-.36,5.88,5.88,0,0,0,9.6-1,9.07,9.07,0,0,0,10.26-.83c1,.17,2.24.31,3.57.44l.57.05c3.13.27,6.89.43,10.95.43h.32a10.34,10.34,0,0,0,1.86,5,10.12,10.12,0,0,0,2.61,2.49,43.45,43.45,0,0,0-4,18.31c0,.31,0,.62,0,.93-.42,0-.83-.07-1.26-.07a14,14,0,0,0-14,12.87,42.53,42.53,0,0,0-4.67-.79,14.47,14.47,0,0,0-28.55,3.33,14.64,14.64,0,0,0,.35,3.13A43.59,43.59,0,0,0,394.57,258a19.59,19.59,0,0,0-21,4.41,24.67,24.67,0,0,0-22.7-4.31,37.6,37.6,0,0,0-1.31-4.62,13,13,0,1,0-14.17-18.17,36.5,36.5,0,0,0-56.47,26.07c-1.23-.12-2.49-.19-3.76-.19a36.52,36.52,0,0,0-33.92,23,55.09,55.09,0,0,0-42.1,3.54,24.88,24.88,0,0,0-46.09.73,42,42,0,0,0-10.37-8.67A24.87,24.87,0,0,0,111,246.45l-.56-.7A13,13,0,0,0,96.7,224a18.28,18.28,0,0,0-34.88,2.32,55.19,55.19,0,0,0-5.91,1A17.75,17.75,0,0,0,38.22,211c-.54,0-1.06,0-1.59.08,0-.39,0-.78,0-1.17a55.09,55.09,0,0,0-37-52,17.87,17.87,0,0,0,.26-3,18.28,18.28,0,0,0-9.76-16.18,18.29,18.29,0,0,0-9.75,16.18,17.87,17.87,0,0,0,.26,3,55.09,55.09,0,0,0-37,52c0,.39,0,.78,0,1.17-.53-.05-1.06-.08-1.59-.08a17.75,17.75,0,0,0-17.69,16.26,55.19,55.19,0,0,0-5.91-1,18.29,18.29,0,0,0-17.8-14.09A18.29,18.29,0,0,0-116.45,224a13,13,0,0,0-5.46-1.22,13,13,0,0,0-13,13,12.94,12.94,0,0,0,4.75,10l-.56.7a24.71,24.71,0,0,0-9-1.69,24.87,24.87,0,0,0-24.87,24.87,24.79,24.79,0,0,0,2.17,10.17,41.78,41.78,0,0,0-10.37,8.67A24.89,24.89,0,0,0-196,272.59a24.89,24.89,0,0,0-22.9,15.15,54.8,54.8,0,0,0-25.3-6.16A55,55,0,0,0-261,284.2a36.5,36.5,0,0,0-33.91-23c-1.27,0-2.53.07-3.76.19a36.51,36.51,0,0,0-36.24-32.19,36.34,36.34,0,0,0-20.23,6.12,13,13,0,0,0-11.79-7.57,13,13,0,0,0-13,13,13,13,0,0,0,10.6,12.75,37.6,37.6,0,0,0-1.31,4.62,24.69,24.69,0,0,0-7.29-1.1,24.58,24.58,0,0,0-15.41,5.41,19.61,19.61,0,0,0-13.91-5.76,19.54,19.54,0,0,0-7.11,1.35A43.59,43.59,0,0,0-425,248.48a14.64,14.64,0,0,0,.35-3.13,14.47,14.47,0,0,0-14.48-14.47A14.46,14.46,0,0,0-453.18,242a42.53,42.53,0,0,0-4.67.79,14,14,0,0,0-14-12.87c-.43,0-.84,0-1.26.07,0-.31,0-.62,0-.93a43.45,43.45,0,0,0-4-18.31,10.12,10.12,0,0,0,2.61-2.49c4.11-5.71,1.45-14.64-5.94-20-7.15-5.15-16.09-5-20.38.18-.51-.2-1-.4-1.54-.58a14.54,14.54,0,0,0,.2-2.39,14.48,14.48,0,0,0-7.72-12.8V363.65h1000v-.15h999.5V172.58A14.48,14.48,0,0,0,1481.9,185.38Z"/><g id="back_clouds"><path class="cls-3" d="M106.68,104.27c1,0,2,0,2.95,0a10.71,10.71,0,0,0,5.82,1.71,10.84,10.84,0,0,0,4.38-.93,5.88,5.88,0,0,0,10.43-.26,16.29,16.29,0,0,0,5,.77,16.62,16.62,0,0,0,3.4-.36,5.88,5.88,0,0,0,9.6-1,9.07,9.07,0,0,0,10.26-.83c1.05.17,2.24.31,3.57.44l.57,0c3.13.27,6.89.43,10.95.43,10.8,0,19.55-1.13,19.55-2.52s-8.75-2.53-19.55-2.53a4,4,0,0,0-5.94-3.47,5.47,5.47,0,0,0-4.79-2.84,5.28,5.28,0,0,0-1.55.23,9,9,0,0,0-9.94-5.86,16.25,16.25,0,0,0-31.85-2.13,10.9,10.9,0,0,0-4-.79,10.79,10.79,0,0,0-10.66,9.15,4.63,4.63,0,0,0-3.16,5.8c-8.35.29-14.51,1.27-14.51,2.44C87.12,103.14,95.88,104.27,106.68,104.27Z"/><path class="cls-3" d="M249.62,173.11c3.12,0,6-.12,8.42-.33l.44,0c1-.1,1.94-.21,2.74-.33a7,7,0,0,0,7.9.63,4.53,4.53,0,0,0,7.39.77,13.2,13.2,0,0,0,2.61.27,12.6,12.6,0,0,0,3.81-.59,4.53,4.53,0,0,0,8,.2,8.26,8.26,0,0,0,7.85-.6c.74,0,1.5,0,2.27,0,8.31,0,15-.87,15-1.94,0-.9-4.73-1.65-11.15-1.87a3.58,3.58,0,0,0,.15-1,3.55,3.55,0,0,0-2.59-3.42,8.28,8.28,0,0,0-11.31-6.44A12.51,12.51,0,0,0,266.71,160a7.47,7.47,0,0,0-1.07-.09,7,7,0,0,0-6.58,4.6,4.15,4.15,0,0,0-4.87,2,3,3,0,0,0-4.57,2.67c-8.31,0-15.05.87-15.05,1.94S241.31,173.11,249.62,173.11Z"/><path class="cls-3" d="M335.12,108.83c3.11,0,6,0,8.41-.13l.45,0c1,0,1.94-.09,2.74-.14a14.06,14.06,0,0,0,4.42.65,14.94,14.94,0,0,0,3.48-.39,7.06,7.06,0,0,0,4,1,8.46,8.46,0,0,0,3.43-.64c.84.07,1.71.11,2.61.11a30.78,30.78,0,0,0,3.81-.24,6.9,6.9,0,0,0,4.06,1,7.18,7.18,0,0,0,4-1,18.72,18.72,0,0,0,3.37.29,17.91,17.91,0,0,0,4.48-.54h2.26c8.31,0,15.05-.35,15.05-.79s-4.73-.68-11.16-.77a.74.74,0,0,0,.16-.43c0-.67-1.1-1.23-2.59-1.4-.61-1.64-4-2.89-8.2-2.89a19.24,19.24,0,0,0-3.12.25c-1.4-2.21-6.28-3.84-12.09-3.84-6.39,0-11.66,2-12.41,4.51-.35,0-.71,0-1.07,0-3,0-5.6.79-6.58,1.89a9.17,9.17,0,0,0-1.19-.07,6.68,6.68,0,0,0-3.69.89,6.81,6.81,0,0,0-1.49-.16c-1.7,0-3.07.56-3.07,1.26-8.31,0-15.05.36-15.05.8S326.81,108.83,335.12,108.83Z"/></g></g><g id="OBJECTS"><polygon id="back_skyline" class="cls-4" points="491.06 274.5 491.06 307.56 481.19 307.56 481.19 320.53 467.06 320.53 467.06 328.21 460.01 328.21 460.01 298.39 455.65 298.39 455.65 294.59 439.91 294.59 439.91 298.39 433.47 298.39 433.47 283.67 425.31 283.67 425.31 278.7 416.75 277.82 416.75 271 406.08 272.27 406.08 276.72 393.62 275.43 393.62 283.67 385.46 283.67 385.46 296.28 375.35 296.28 375.35 328.21 362.85 328.21 362.85 316.61 343.97 316.61 343.97 307.68 339.46 308.21 339.46 303.25 328.79 304.51 328.79 309.48 324.28 310.01 324.28 316.61 314.84 316.61 314.84 323.62 300.93 323.62 300.93 318.89 264 318.89 264 311.58 254.56 311.58 254.56 304.7 250.05 304.14 250.05 298.96 239.38 297.64 239.38 302.82 234.87 302.26 234.87 311.58 215.99 311.58 215.99 323.68 203.49 323.68 203.49 290.38 193.38 290.38 193.38 277.21 185.22 277.21 185.22 268.62 172.76 269.96 172.76 265.32 162.09 264 162.09 271.11 153.53 272.03 153.53 277.21 145.37 277.21 145.37 292.57 138.93 292.57 138.93 288.61 123.19 288.61 123.19 292.57 118.83 292.57 118.83 323.68 111.78 323.68 111.78 315.67 97.65 315.67 97.65 302.14 87.78 302.14 87.78 267.65 63.77 264.05 63.77 302.14 55.16 302.14 55.16 290.38 45.3 290.38 45.3 285.31 34.63 283.99 34.63 290.38 31.15 290.38 31.15 301.71 23.35 301.71 23.35 292.57 0.42 292.57 0.42 373 276.84 373 302 373 500 373 500 273.21 491.06 274.5"/><path id="front_skyline" class="cls-5" d="M500,305.74V304.2c-10.63-4.25-17.89-7.86-20.53-9.23a2.48,2.48,0,0,0-1.86-1.46l-4.22-.7a.71.71,0,0,0-.76-.13l-14.37-2.39a2.49,2.49,0,0,0-2.9,2.46v.57c-28,21.11-53.68,26.88-73.52,26.78l-1.07-.18a96.9,96.9,0,0,1-36-13.74,1.89,1.89,0,0,0-1.58-1.73L328.34,302a1.94,1.94,0,0,0-1.42.34.52.52,0,0,0-.19.08A104.56,104.56,0,0,1,302,317v-5H279.07v7.88h-7.8v-9.77h-3.48v-5.5l-10.67,1.14v4.36h-9.86v4.44l-.41-.25v-5.13a1.75,1.75,0,0,0-1.47-1.73l-6.73-1.13V287.45L220,289.86V228.25h-4.59v-18.1H210V196h-2.33v-7.3l-4.71-4.73h-.62V169h-1V155.94h-1.73V169h-1v14.89H198l-4.71,4.73V196H191v14.2h-5.44v18.1H181V312h-1.72v-3.41H163.49V312H157V298.79h-8.16v-4.46l-8.55-.79v-6.13l-10.67,1.14v4l-12.46-1.16v7.4H109v11.34H98.93v28.7H86.43V328.41H67.55v-8l-4.51.48v-4.46l-10.67,1.14V322l-4.51.48v5.94H38.42v6.3H1.49v4.12H.42V373H500V347.35l-4.21-.29v-2.68l-10-.68v2.68l-4.24-.29v4.83h-1.82V336.13l20.31-.19v-10l-1.56.05v-8.66l1.56.41v-1.48l-1.56-.42V312.4l1.56.43v-1.49l-1.56-.42v-2.19c.51.19,1,.37,1.56.55v-1.52c-.52-.18-1.05-.36-1.56-.55v-2.09Zm-258,9.77a2,2,0,0,1,.55-.09,2.35,2.35,0,0,1,2.21,2.24c-1-.4-1.89-.8-2.76-1.21Zm2.79,4.76H242v-2.11c.88.45,1.8.92,2.79,1.38Zm2.49-1.63-.41-.15v-.75l.41.27Zm0-1.78-.41-.27v-1.15l.41.24ZM317.6,310c.86-.54,1.71-1.09,2.56-1.66v2.57c-.86.56-1.71,1.11-2.56,1.64Zm0,3.67c.86-.52,1.71-1.06,2.56-1.62v2.78c-.86.44-1.71.87-2.56,1.28Zm0,3.52c.86-.41,1.71-.83,2.56-1.27v2.42c-.86.46-1.71.9-2.56,1.33Zm0,3.57c.86-.42,1.71-.87,2.56-1.32v11.84l-2.56.08Zm-3-8.92c.86-.5,1.71-1,2.56-1.55v2.56c-.86.52-1.71,1-2.56,1.51Zm0,3.63c.86-.48,1.71-1,2.56-1.5v2.37c-.86.41-1.71.79-2.56,1.17Zm0,3.12c.86-.38,1.71-.76,2.56-1.17v2.49c-.86.42-1.71.82-2.56,1.21Zm0,3.6c.85-.38,1.71-.78,2.56-1.2v10.38l-2.56.08Zm-3-8.63c.85-.47,1.71-.95,2.55-1.44v2.52c-.85.48-1.7.95-2.55,1.39Zm0,3.57c.85-.44,1.71-.9,2.55-1.38v2q-1.27.56-2.55,1.05Zm0,2.7c.85-.33,1.7-.68,2.55-1v2.54c-.85.39-1.7.75-2.55,1.1Zm0,3.66,2.55-1.08v9.05l-2.55.08Zm-3-8.36q1.28-.63,2.55-1.32v2.48c-.85.44-1.7.87-2.55,1.27Zm0,3.51c.85-.4,1.7-.83,2.55-1.26V319c-.85.33-1.7.65-2.55.95Zm0,2.32c.85-.3,1.7-.61,2.55-.94v2.6c-.85.35-1.7.67-2.55,1Zm0,3.7c.85-.31,1.7-.63,2.55-1v7.86l-2.55.08Zm-3-8.09c.85-.38,1.7-.79,2.55-1.21v2.43c-.85.4-1.7.79-2.55,1.16Zm0,3.45c.85-.37,1.7-.75,2.55-1.15v1.2q-1.29.45-2.55.84Zm0,1.94c.85-.26,1.7-.54,2.55-.83v2.64c-.86.31-1.71.6-2.55.86Zm0,3.72c.85-.27,1.7-.55,2.55-.85v6.81l-2.55.08Zm-3-7.79c.85-.35,1.7-.72,2.55-1.1v2.37c-.85.36-1.71.71-2.55,1Zm0,3.38c.85-.33,1.7-.68,2.55-1v.83c-.86.26-1.71.5-2.55.73Zm0,1.56,2.55-.72v2.67q-1.29.41-2.55.75Zm0,3.74c.85-.23,1.7-.48,2.55-.74v5.9l-2.55.08ZM320.54,346h-8.11v-6.1h-9.27v-2.24l17.38-.15Zm2.65-19.51-2.55-.21v-7.14l2.55-1.44Zm0-9.9c-.86.5-1.71,1-2.55,1.45v-2.41l2.55-1.38Zm0-3.45c-.86.48-1.71.95-2.55,1.4v-2.84q1.28-.86,2.55-1.74Zm0-4.36q-1.29.92-2.55,1.77V308c.85-.58,1.7-1.17,2.55-1.78Zm2.92,17.95-2.44-.2v-9.11c.81-.48,1.63-1,2.44-1.49Zm0-11.93c-.82.52-1.63,1-2.44,1.5V314c.81-.46,1.63-.94,2.44-1.43Zm0-3.38c-.82.5-1.63,1-2.44,1.45v-3.26c.81-.58,1.63-1.18,2.44-1.79Zm0-4.8c-.82.63-1.63,1.23-2.44,1.82v-2.59c.81-.59,1.63-1.19,2.44-1.81Zm8.37,20.8-4.87-.4v-11.9a3,3,0,0,1,.75-2c.31-.21.61-.41.91-.63a2.3,2.3,0,0,1,.78-.15,2.63,2.63,0,0,1,2.43,2.78Zm8,.66-4.87-.4V315.89a2.62,2.62,0,0,1,2.44-2.78h.13c.52.27,1.05.55,1.6.82a2.94,2.94,0,0,1,.7,1.95Zm108.08-29.58c.74-.51,1.49-1,2.23-1.56v3.41l-2.23,1.56Zm0,5.16,2.23-1.54v3.77l-2.23,1.22Zm0,5.1,2.23-1.22v3.58l-2.23,1.29Zm0,5.31c.74-.41,1.49-.83,2.23-1.27v14.5l-2.23.07Zm-2.71-13.74c.74-.49,1.49-1,2.23-1.5v3.41l-2.23,1.5Zm0,5.13c.74-.48,1.49-1,2.23-1.48v3.39l-2.23,1.16Zm0,4.71L450.1,309v3.67c-.75.41-1.49.82-2.23,1.21Zm0,5.38,2.23-1.21v13l-2.23.07Zm-2.72-13.46c.75-.47,1.49-.95,2.24-1.44v3.4c-.75.48-1.49,1-2.24,1.42Zm0,5.08,2.24-1.4v3c-.75.38-1.5.74-2.24,1.1Zm0,4.32c.75-.35,1.49-.72,2.24-1.09v3.75l-2.24,1.15Zm0,5.45c.75-.37,1.49-.76,2.24-1.14v11.66l-2.24.07Zm-2.71-13.17c.75-.45,1.49-.92,2.23-1.38v3.38c-.74.46-1.49.91-2.23,1.35Zm0,5c.75-.43,1.49-.88,2.23-1.33v2.62c-.74.36-1.49.71-2.23,1Zm0,3.94c.75-.33,1.49-.67,2.23-1v3.82c-.74.37-1.49.73-2.23,1.08Zm-46.1,10h1l-1,.11ZM393.62,321c.75-.08,1.49-.16,2.24-.26v.59c-.76,0-1.5,0-2.24-.06Zm0,1.73c.75,0,1.49.05,2.24.06v.17l-2.24.18Zm0,1.9,2.24-.17v2.47l-2.24-.1Zm0,3.66c.75.05,1.49.08,2.24.1V329l-2.24.07Zm-.48-7.24v.2q-.66,0-1.32-.06Zm-2.23,1.54,2.23.12v.46c-.75.05-1.49.1-2.23.13Zm0,2.19,2.23-.11v2.13c-.75-.05-1.49-.1-2.23-.17Zm0,3.31c.74.07,1.49.12,2.23.17v.88l-2.23.07Zm-2.71-5.71c.74.07,1.49.13,2.23.18v.75l-2.23.06Zm0,2.47,2.23-.05v1.79c-.75-.07-1.5-.15-2.23-.24Zm0,3c.74.09,1.49.17,2.23.24v1.17l-2.23.07Zm-2.71-5.72c.74.09,1.49.17,2.23.24v1c-.75,0-1.5,0-2.23,0Zm0,2.76,1.52,0h.71v1.44l-2.23-.31Zm0,2.6c.74.11,1.49.21,2.23.3v1.55l-2.23.07Zm-2.72-5.72c.75.11,1.49.21,2.24.3v1.34l-2.24-.07Zm0,3,2.24.07v1.08c-.76-.12-1.5-.24-2.24-.38Zm0,2.23c.75.13,1.49.26,2.24.37v2l-2.24.07Zm-2.71-5.43c.62,0,1.25,0,1.87,0l.37.06v1.62c-.76,0-1.5-.08-2.24-.13Zm0,3,2.24.14v.71c-.76-.15-1.51-.29-2.24-.45Zm0,1.86c.75.16,1.49.3,2.24.44v2.56l-2.24.06Zm-2.71-5c.74,0,1.49.07,2.23.09v1.56c-.75-.06-1.49-.12-2.23-.2Zm0,2.91,2.23.2v.33l-.65-.15-1.58-.38Zm0,1.48,1.2.29,1,.22v3.18l-2.23.06Zm-2.71-4.57c.74.06,1.49.11,2.23.15v1.44l-2.23-.26Zm0,3.87c.73.2,1.48.4,2.23.58v3.89l-2.23.06ZM371.93,321c.74.08,1.48.15,2.23.21v1.31c-.76-.1-1.5-.21-2.23-.33Zm0,3.33c.73.23,1.47.45,2.23.66v4.68l-2.23.06Zm-2.72-5.59c.74.21,1.48.42,2.24.62v.14c-.76-.08-1.5-.18-2.24-.27Zm0,1.93,2.24.28v1.17c-.76-.12-1.5-.25-2.24-.39Zm0,2.78c.74.25,1.48.5,2.24.73v5.57l-2.24.06Zm-2.71-5.54c.73.24,1.48.46,2.24.69v.56l-2.24-.34Zm0,2.36,2.24.34v1l-.81-.16L366.5,321Zm0,2.38,1,.21,1.22.43v6.54l-2.24.06ZM363.79,317c.73.26,1.47.52,2.23.76v1h-.08c-.73-.12-1.44-.25-2.15-.39Zm0,2.81,1.83.33.4.07v.57c-.76-.3-1.5-.59-2.23-.9Zm0,2.24,2.08.48.15,0v7.36l-2.23.06Zm-2.71-6c.72.28,1.47.55,2.23.83v1.41c-.75-.15-1.5-.3-2.23-.47Zm0,5.34c.73.2,1.48.39,2.23.58V330l-2.23.07Zm-2.71-6.43c.72.3,1.46.6,2.23.9v1.86c-.76-.17-1.5-.35-2.23-.54Zm0,5.64c.73.23,1.47.44,2.23.65v8.87l-2.23.07Zm-2.72-6.82,2.24,1V317l-.64-.17-1.6-.83Zm0,4.17,1.09.3,1.15.57v.14l-2.24-.73Zm0,1.8c.74.24,1.48.48,2.24.71v9.74l-2.24.07Zm-2.71-7.25c.72.35,1.46.71,2.23,1.06v2.25c-.77-.42-1.52-.84-2.23-1.25Zm0,4.66c.73.23,1.48.45,2.23.66V318l-2.23-.8Zm0,1.64c.73.26,1.48.53,2.23.78v10.7l-2.23.07Zm-2.71-7.68,2.23,1.15v2c-.79-.47-1.53-.92-2.23-1.36Zm2.23,5.89V317l-1.17-.45Zm-2.23-2.39.59.36-.59-.2Zm0,3.15c.73.29,1.47.57,2.23.85v11.74l-2.23.07Zm-2.71-8.16c.68.4,1.43.82,2.23,1.25v1.77c-.81-.51-1.55-1-2.23-1.47Zm0,3.28c.68.46,1.43.94,2.23,1.43v.29l-2.23-.81Zm0,3.76,2.23.93v12.86l-2.23.07Zm-2.75-8.7c.64.41,1.4.87,2.27,1.38v1.51c-.89-.62-1.65-1.17-2.27-1.64Zm0,3c.65.48,1.41,1,2.27,1.59v1.05c-.78-.29-1.54-.6-2.27-.9Zm0,4.44c.73.34,1.49.68,2.27,1v14.08l-2.27.07Zm52.54,25.7h-6.06V339H376.44v2.05h-4.1v16.12h-6.63V353H352.42v-7h-7.65v-8.71l52.54-.46Zm1.26-12.13-2.23.07v-.64c.74,0,1.48,0,2.23,0Zm0-2c-.75,0-1.5,0-2.23,0v-2.53l2.23-.24Zm0-5.64h-2.23v-.66c.74-.1,1.48-.2,2.23-.32Zm2.71,7.57-2.23.07v-.51l2.23,0Zm0-2-2.23,0v-2.85l2.23-.31Zm0-5.69c-.75,0-1.5.06-2.23.07v-1l2.23-.37Zm2.71,7.57-2.23.07v-.48c.74,0,1.49-.05,2.23-.09Zm0-2-2.23.1V323.7c.74-.11,1.49-.23,2.23-.36Zm0-5.72-2.23.12v-1.43c.74-.14,1.49-.28,2.23-.44Zm2.72,7.63-2.24.07v-.52c.75,0,1.49-.09,2.24-.15Zm0-2.11c-.76.07-1.5.12-2.24.17v-3.5l2.24-.43Zm0-5.74-2.24.18v-1.81c.75-.16,1.49-.33,2.24-.51Zm2.71,7.77-2.24.07v-.64c.75-.06,1.49-.14,2.24-.22Zm0-2.3c-.75.09-1.5.16-2.24.23v-3.82l.59-.11,1.65-.37Zm0-5.76-2.24.24v-2.19l.14,0q1.05-.26,2.1-.54Zm2.71,8-2.23.07v-.84c.74-.08,1.48-.18,2.23-.28Zm0-2.57c-.75.11-1.49.2-2.23.29v-4.12l1.27-.31,1-.13Zm0-5.94-1.45.37-.78.1v-2.59l2.23-.63Zm.91,8.48-.43,0v-1.11l.43-.07Zm1.8-3-2.23.36v-4.27c.74-.11,1.49-.23,2.23-.36Zm0-6.26-2.23.62v-2.76c.74-.22,1.49-.45,2.23-.69Zm2.71,5.75-2.23.42v-4.26c.74-.13,1.49-.27,2.23-.42Zm0-6.58c-.74.24-1.49.47-2.23.69V316.3c.74-.24,1.49-.48,2.23-.74Zm2.72,8.31-2.24-.15v-.14l1.28-.26,1-.22Zm0-2.32c-.75.17-1.5.34-2.24.49v-4.25c.75-.15,1.49-.31,2.24-.48Zm0-6.89-2.24.75v-2.91c.75-.26,1.49-.52,2.24-.8ZM423,327l-2.24-.15v-.92c.75-.17,1.49-.36,2.24-.55Zm0-3.18c-.75.2-1.5.39-2.24.56v-4.24l1.42-.32.82-.21Zm0-7.21c-.75.29-1.49.56-2.24.82v-3l2.24-.87Zm2.71,11.58-2.23.06v-3l2.23-.61Zm0-5.11-2.23.62v-4.22l2.23-.58Zm0-5.74-1.51.41c.51-.2,1-.39,1.51-.6Zm0-1.79c-.75.3-1.49.6-2.23.88v-3c.74-.3,1.49-.62,2.23-.94Zm2.71,12.56-2.23.06v-3.67c.74-.21,1.49-.44,2.23-.67Zm0-5.86-2.23.69v-4.18l2.23-.65Zm0-5.71-2.23.66v-.24l2.23-.94Zm0-2.13c-.75.33-1.49.64-2.23.95v-3.1l2.23-1ZM431.11,328l-2.23.06v-4.41c.75-.24,1.49-.49,2.23-.75Zm0-6.68c-.74.26-1.49.51-2.23.75v-4.14c.75-.23,1.49-.48,2.23-.73Zm0-5.69c-.74.26-1.49.49-2.23.73v-.57l2.23-1Zm0-2.47c-.74.35-1.49.68-2.23,1V311c.75-.34,1.49-.69,2.23-1.05Zm2.72,14.76-2.24.06v-5.25l2.24-.8Zm0-7.59c-.75.28-1.5.56-2.24.82V317c.75-.25,1.49-.52,2.24-.79Zm0-5.64-2.24.78v-.91c.75-.35,1.49-.7,2.24-1.07Zm0-2.84-2.24,1.08V309.7c.75-.36,1.49-.73,2.24-1.11Zm2.71,16-2.24.06v-6.16c.75-.28,1.49-.57,2.24-.87Zm0-8.57c-.75.3-1.49.6-2.24.88v-4.06c.75-.27,1.49-.55,2.24-.84Zm0-5.61c-.75.29-1.49.58-2.24.85v-1.26c.75-.37,1.49-.74,2.24-1.13Zm0-3.19c-.75.39-1.49.78-2.24,1.15v-3.26c.75-.38,1.49-.77,2.24-1.17Zm2.71,17.29-2.23.06v-7.14c.74-.31,1.49-.62,2.23-1Zm0-9.64c-.75.33-1.49.64-2.23.95v-4c.74-.29,1.49-.59,2.23-.9Zm0-5.55-2.23.91v-1.61l2.23-1.2Zm0-3.56L437,310.2v-3.29l2.23-1.24ZM442,327.65l-2.23.07v-8.21l2.23-1Zm0-10.77-2.23,1v-3.95c.74-.31,1.49-.62,2.23-.95Zm0-5.51c-.75.34-1.49.66-2.23,1v-2c.74-.41,1.49-.83,2.23-1.27Zm0-3.94c-.74.44-1.49.87-2.23,1.29V305.4l2.23-1.32Zm.48,10.84c.75-.34,1.49-.7,2.23-1.07v10.37l-2.23.07Zm12.92,38.92H452V339.93h-9.51v-3.47l12.88-.12Zm0-29.93-2.07.06V312.55l2.07-1.24Zm0-17.65-2.07,1.26v-3.56c.69-.39,1.38-.78,2.07-1.19Zm0-5.15-2.07,1.19V301.8l2.07-1.49Zm0-5.94L453.29,300v-3.42c.69-.5,1.38-1,2.07-1.51Zm6.44,5.66,1.05.48c-.94.67-1.88,1.31-2.82,1.94A3.54,3.54,0,0,1,461.8,304.18Zm4.48,22.75-6.35.19V308.4q2.22-1.47,4.44-3l1.66.72a4.1,4.1,0,0,1,.25,1.41Zm10.46-.31-6.35.19V308.44a4.38,4.38,0,0,1,0-.52c1.9.77,4,1.6,6.31,2.45Zm0-17.78c-2.13-.8-4.1-1.57-5.88-2.3a3.13,3.13,0,0,1,2.58-1.72l1.93.63a3.8,3.8,0,0,1,1.37,3Zm6.06,17.6-3.11.09V311.44c1,.36,2.05.73,3.11,1.09Zm0-15.43c-1.07-.36-2.1-.73-3.11-1.09v-3.07l3.11,1Zm0-4.69-3.11-1v-3.78l3.11,1.26Zm0-5.05L479.69,300V296.7c.81.41,1.85.92,3.11,1.53Zm3,25.08-2.55.08V312.69l2.55.86Zm0-14.31-2.55-.86V308l2.55.79Zm0-4.78-2.55-.79V303c.83.34,1.69.67,2.55,1Zm0-4.78-2.55-1v-3l2.55,1.21Zm3,23.78-2.56.08V313.7l2.56.82Zm0-13.25c-.87-.27-1.72-.54-2.56-.82V308.9l2.56.77Zm0-4.84-2.56-.77v-3.19l2.56,1Zm0-4.51-2.56-1v-2.78l2.56,1.16Zm3,22.51-2.56.08V314.67l2.56.78Zm0-12.22c-.87-.26-1.72-.52-2.56-.79v-3.35l2.56.75Zm0-4.89-2.56-.75v-2.93l2.56,1Zm0-4.24-2.56-1v-2.59c.82.37,1.67.74,2.56,1.12Zm3,21.26-2.55.08V315.59l1.05.32,1.5.43Zm0-11.24-1.06-.3-1.49-.45v-3.4c.83.25,1.69.49,2.55.73Zm0-4.91-2.55-.73v-2.67l2.55.94Zm0-4c-.87-.31-1.71-.63-2.55-.94v-2.41l2.55,1.09ZM498,326l-2.55.08v-9.59l2.55.71Zm0-10.29-2.55-.72v-3.42l2.55.71Zm0-4.92-2.55-.71v-2.43c.84.31,1.69.62,2.55.92Zm0-3.74-2.55-.92v-2.24l2.55,1.05Z"/><rect id="banner" class="cls-6" y="369" width="500" height="131"/><path id="statue" class="cls-6" d="M136,295.83v-8.67H125l-.82-7a7.36,7.36,0,0,0,2.42-2.84c.42-1.43-.43-13.37-.43-13.37l1.71-3.55-.15-5.83,1.57-1.57c0-1.56-2.85-27.58-2.85-27.58l.71-2.42s3.27.43,4.27-1.84,3.27-14.08,3.27-14.08,3.55-1.14,4.41-2.13,2-4.55,2-4.55l1.14-.86.42-2s1.71-.71,1.71-2a7.85,7.85,0,0,0-1.14-3.12l1-1.85-1-2L130,181.92l-3,5a11.52,11.52,0,0,1-2.27-2.13A33.38,33.38,0,0,1,119.61,174c-1.85-6.25-4.12-7.53-4.12-7.53s-3.13-2.56-3.56-3.42-2-7.39-2-7.39a2.49,2.49,0,0,0,.71-1.85c-.14-1-1.56-6.54-1.56-6.54s1.14,0,1.28-.85-1-3.13-1-3.13l.86-2,12.22-.85-11.94-1.71-.71-1.7,11.94-4.7L109,134.58,107.81,133l6.68-9.1-9.81,7.67-3.13-1-2.27-11.09-.57,11.09a26,26,0,0,0-4.55.85l-8.82-6.11L92,133l-2,1.84-8.11.43v-3.84l-3.13-8.39-1.13-9s.42-9.67.42-10.24S76,97.76,76,97.76l.43-4.13c1.28-.28,5.26-3.27,5.26-3.27V84.68L78.52,83l1.42-3-.28-4.4L78.52,77a13.1,13.1,0,0,0,.57-3.7,27.93,27.93,0,0,0-1-5.54l-1.7,2.13c-.57.71-8,3-8.39,3.55S66.72,78,67,78.7s1.14,3,1.14,3a13.29,13.29,0,0,0-5,2.27v5.83l2.71,2.56L67,94.06l.71,1.85-.56,1.42L67.71,99l-.42,1.13.85,1.42-.28,1.71s.71,3.13.85,4.41S70,114.39,70,114.39a46.34,46.34,0,0,1,.71,9.24c-.14,5,2,17.06,2,17.06s-3,5-3.55,7.54-1.71,10.24-1.43,10.66,2.56,2.85,2.56,2.85a18.43,18.43,0,0,0-.14,3.12c.14.71,2.7,2.85,2.7,2.85s.14,10.8.43,12.37,2.27,4.55,2.42,6-4.27,15.64-4,17.91,2.84,5.26,3.55,6.83S73,222.59,73,224.15s3.27,9.1,3.27,10.66-2.55,18.2-2.55,18.63,2.13,2.13,2.27,3-2.27,17.34-2.27,20.47c0,1.32-.56,5.65-1.21,10.26H63.33v8.67H53.67v9.33h6.66V386H139V305.16h6.67v-9.33Z"/><text class="cls-7" transform="translate(150.28 446.34)">NEW <tspan class="cls-8" x="99.7" y="0">Y</tspan><tspan x="120.72" y="0">ORK</tspan></text><text class="cls-9" transform="translate(185.71 406.08)"><tspan class="cls-10">W</tspan><tspan x="24.41" y="0">elcome to </tspan></text></g></svg>